<svg width="30" height="30" viewBox="0 0 30 30" fill="none" xmlns="http://www.w3.org/2000/svg">
<path fill-rule="evenodd" clip-rule="evenodd" d="M7.13806 7.5H26.6152L24.7603 18.75H8.99303L7.13806 7.5Z" stroke="#F3F3F3" stroke-linecap="round" stroke-linejoin="round"/>
<path fill-rule="evenodd" clip-rule="evenodd" d="M11.25 25C11.9404 25 12.5 24.4404 12.5 23.75C12.5 23.0596 11.9404 22.5 11.25 22.5C10.5596 22.5 10 23.0596 10 23.75C10 24.4404 10.5596 25 11.25 25Z" stroke="#F3F3F3"/>
<path fill-rule="evenodd" clip-rule="evenodd" d="M22.5 25C23.1904 25 23.75 24.4404 23.75 23.75C23.75 23.0596 23.1904 22.5 22.5 22.5C21.8096 22.5 21.25 23.0596 21.25 23.75C21.25 24.4404 21.8096 25 22.5 25Z" stroke="#F3F3F3"/>
<path d="M8.75 7.5H3.75" stroke="#F3F3F3" stroke-linecap="round"/>
</svg>
