<svg width="40" height="40" viewBox="0 0 40 40" fill="none" xmlns="http://www.w3.org/2000/svg">
<path fill-rule="evenodd" clip-rule="evenodd" d="M9.51737 10H35.487L33.0137 25H11.9907L9.51737 10Z" stroke="#FEFEFF" stroke-linecap="round" stroke-linejoin="round"/>
<path fill-rule="evenodd" clip-rule="evenodd" d="M15 33.3333C15.9205 33.3333 16.6667 32.5871 16.6667 31.6667C16.6667 30.7462 15.9205 30 15 30C14.0795 30 13.3333 30.7462 13.3333 31.6667C13.3333 32.5871 14.0795 33.3333 15 33.3333Z" stroke="#FEFEFF"/>
<path fill-rule="evenodd" clip-rule="evenodd" d="M30 33.3333C30.9205 33.3333 31.6667 32.5871 31.6667 31.6667C31.6667 30.7462 30.9205 30 30 30C29.0795 30 28.3333 30.7462 28.3333 31.6667C28.3333 32.5871 29.0795 33.3333 30 33.3333Z" stroke="#FEFEFF"/>
<path d="M11.6667 10H5" stroke="#FEFEFF" stroke-linecap="round"/>
</svg>
