<svg width="40" height="40" viewBox="0 0 40 40" fill="none" xmlns="http://www.w3.org/2000/svg">
<path d="M8.33334 20H28.3333V31.6667C28.3333 34.4281 26.0948 36.6667 23.3333 36.6667H13.3333C10.5719 36.6667 8.33334 34.4281 8.33334 31.6667V20Z" stroke="#EAEAEA"/>
<path d="M28.3333 21.6667H31.6667C33.5076 21.6667 35 23.1591 35 25V25C35 26.841 33.5076 28.3333 31.6667 28.3333H28.3333" stroke="#EAEAEA"/>
<path d="M15 15C15 15 13.3333 14.1667 13.3333 11.6667C13.3333 9.16666 15 8.33333 15 8.33333" stroke="#EAEAEA" stroke-linecap="round"/>
<path d="M20 5.00001C20 5.00001 21.6667 5.83334 21.6667 8.33334C21.6667 10.8333 20 11.6667 20 11.6667" stroke="#EAEAEA" stroke-linecap="round"/>
</svg>
