<svg width="22" height="21" viewBox="0 0 22 21" fill="none" xmlns="http://www.w3.org/2000/svg">
<path d="M14.8294 10.1185H6.64453C6.28853 10.1185 6 10.4429 6 10.8432C6 11.2434 6.28853 11.5678 6.64453 11.5678H14.8294C15.1854 11.5678 15.4739 11.2434 15.4739 10.8432C15.4739 10.4429 15.1854 10.1185 14.8294 10.1185Z" fill="white"/>
<path d="M14.8294 6.74567H6.64453C6.28853 6.74567 6 7.07024 6 7.4703C6 7.87055 6.28853 8.19493 6.64453 8.19493H14.8294C15.1854 8.19493 15.4739 7.87055 15.4739 7.4703C15.4739 7.07024 15.1854 6.74567 14.8294 6.74567Z" fill="white"/>
<path d="M17.4883 0H4.51172C2.0239 0 0 2.26091 0 5.04008V12.8245C0 15.0421 1.30333 16.9735 3.19194 17.5917L5.37093 20.0261C5.49194 20.1611 5.65576 20.237 5.8268 20.237C5.99767 20.237 6.16165 20.1611 6.2825 20.0261L8.28139 17.7929H17.4883C19.9761 17.7929 22 15.532 22 12.7528V5.04008C22 2.26091 19.9761 0 17.4883 0ZM20.7109 12.7528C20.7109 14.7379 19.2653 16.3529 17.4883 16.3529H8.01451C7.84364 16.3529 7.67966 16.4288 7.55881 16.5638L5.8268 18.4987L3.98216 16.438C3.89941 16.3456 3.79568 16.28 3.68205 16.2485C2.27315 15.8568 1.28906 14.4488 1.28906 12.8245V5.04008C1.28906 3.05499 2.73473 1.44002 4.51172 1.44002H17.4883C19.2653 1.44002 20.7109 3.05499 20.7109 5.04008V12.7528Z" fill="white"/>
</svg>
