<svg width="22" height="22" viewBox="0 0 22 22" fill="none" xmlns="http://www.w3.org/2000/svg">
<path d="M11.0019 6.01245L10.9999 11.5094C10.9999 11.7181 11.0724 11.9176 11.2014 12.0649L14.6422 15.9966L15.6144 14.8855L12.3749 11.184L12.3769 6.01245H11.0019Z" fill="#D4D7DC"/>
<path d="M12.375 0C7.53576 0 3.53067 4.10735 2.85988 9.42858H0L3.4375 13.3571L6.87499 9.42858H4.24919C4.90692 4.97652 8.29508 1.57144 12.375 1.57144C16.9243 1.57144 20.625 5.80079 20.625 11C20.625 16.1993 16.9243 20.4286 12.375 20.4286C9.81771 20.4286 7.44638 19.1058 5.86926 16.7993L4.78565 17.766C6.62523 20.4562 9.39134 22 12.375 22C17.6823 22 22 17.0647 22 11C22 4.93532 17.6823 4.56205e-05 12.375 0Z" fill="white"/>
</svg>
