<svg width="113" height="115" viewBox="0 0 113 115" fill="none" xmlns="http://www.w3.org/2000/svg">
<g filter="url(#filter0_d_537_34)">
<path d="M25.8959 93.4375C25.8959 93.4375 42.375 86.25 47.0834 81.4583C51.7917 76.6667 37.6667 76.6667 37.6667 52.7083C37.6667 28.75 56.5 28.75 56.5 28.75C56.5 28.75 75.3334 28.75 75.3334 52.7083C75.3334 76.6667 61.2084 76.6667 65.9167 81.4583C70.625 86.25 87.1042 93.4375 87.1042 93.4375" stroke="black" stroke-linecap="round"/>
<path fill-rule="evenodd" clip-rule="evenodd" d="M56.5 105.417C82.5034 105.417 103.583 83.9637 103.583 57.5C103.583 31.0364 82.5034 9.58334 56.5 9.58334C30.4966 9.58334 9.41663 31.0364 9.41663 57.5C9.41663 83.9637 30.4966 105.417 56.5 105.417Z" stroke="black"/>
</g>
<defs>
<filter id="filter0_d_537_34" x="-4" y="0" width="121" height="123" filterUnits="userSpaceOnUse" color-interpolation-filters="sRGB">
<feFlood flood-opacity="0" result="BackgroundImageFix"/>
<feColorMatrix in="SourceAlpha" type="matrix" values="0 0 0 0 0 0 0 0 0 0 0 0 0 0 0 0 0 0 127 0" result="hardAlpha"/>
<feOffset dy="4"/>
<feGaussianBlur stdDeviation="2"/>
<feComposite in2="hardAlpha" operator="out"/>
<feColorMatrix type="matrix" values="0 0 0 0 0 0 0 0 0 0 0 0 0 0 0 0 0 0 0.25 0"/>
<feBlend mode="normal" in2="BackgroundImageFix" result="effect1_dropShadow_537_34"/>
<feBlend mode="normal" in="SourceGraphic" in2="effect1_dropShadow_537_34" result="shape"/>
</filter>
</defs>
</svg>
