<svg width="19" height="22" viewBox="0 0 19 22" fill="none" xmlns="http://www.w3.org/2000/svg">
<path d="M18.762 10.9627C19.1064 10.5315 19.0731 9.87058 18.6877 9.48689L10.1964 1.02867C9.81094 0.644973 9.19301 0.653011 8.81571 1.04679L0.295504 9.93785C-0.0818038 10.3316 -0.100322 10.9917 0.254503 11.4116L0.468116 11.6648C0.822508 12.0847 1.39534 12.1348 1.74676 11.7763L2.38352 11.1271V20.6308C2.38352 21.2139 2.79854 21.686 3.31037 21.686H6.63157C7.1434 21.686 7.55843 21.2139 7.55843 20.6308V13.9821H11.7947V20.6308C11.7873 21.2135 12.1535 21.6855 12.6653 21.6855H16.185C16.6968 21.6855 17.1118 21.2135 17.1118 20.6304V11.261C17.1118 11.261 17.2877 11.4364 17.5047 11.6535C17.7213 11.8701 18.1762 11.6964 18.5206 11.2648L18.762 10.9627Z" fill="white"/>
</svg>
