<svg width="22" height="22" viewBox="0 0 22 22" fill="none" xmlns="http://www.w3.org/2000/svg">
<path d="M17.4883 0.901001H4.51172C2.0239 0.901001 0 3.24044 0 6.11613V14.1709C0 16.4655 1.30333 18.464 3.19194 19.1037L5.37093 21.6226C5.49194 21.7623 5.65576 21.8409 5.8268 21.8409C5.99767 21.8409 6.16165 21.7623 6.2825 21.6226L8.28139 19.3119H17.4883C19.9761 19.3119 22 16.9724 22 14.0968V6.11613C22 3.24044 19.9761 0.901001 17.4883 0.901001ZM20.7109 14.0968C20.7109 16.1508 19.2653 17.8218 17.4883 17.8218H8.01451C7.84364 17.8218 7.67966 17.9004 7.55881 18.0401L5.8268 20.0422L3.98216 17.9099C3.89941 17.8143 3.79568 17.7464 3.68205 17.7138C2.27315 17.3085 1.28906 15.8516 1.28906 14.1709V6.11613C1.28906 4.06209 2.73473 2.39104 4.51172 2.39104H17.4883C19.2653 2.39104 20.7109 4.06209 20.7109 6.11613V14.0968Z" fill="white"/>
</svg>
