<svg width="22" height="21" viewBox="0 0 22 21" fill="none" xmlns="http://www.w3.org/2000/svg">
<path d="M17.4883 0.135803H4.51172C2.0239 0.135803 0 2.39672 0 5.17589V12.9603C0 15.1779 1.30333 17.1093 3.19194 17.7275L5.37093 20.1619C5.49194 20.2969 5.65576 20.3728 5.8268 20.3728C5.99767 20.3728 6.16165 20.2969 6.2825 20.1619L8.28139 17.9287H17.4883C19.9761 17.9287 22 15.6678 22 12.8886V5.17589C22 2.39672 19.9761 0.135803 17.4883 0.135803ZM20.7109 12.8886C20.7109 14.8737 19.2653 16.4887 17.4883 16.4887H8.01451C7.84364 16.4887 7.67966 16.5646 7.55881 16.6996L5.8268 18.6345L3.98216 16.5738C3.89941 16.4814 3.79568 16.4158 3.68205 16.3843C2.27315 15.9926 1.28906 14.5846 1.28906 12.9603V5.17589C1.28906 3.19079 2.73473 1.57583 4.51172 1.57583H17.4883C19.2653 1.57583 20.7109 3.19079 20.7109 5.17589V12.8886Z" fill="white"/>
</svg>
