<svg width="12" height="23" viewBox="0 0 12 23" fill="none" xmlns="http://www.w3.org/2000/svg">
<path d="M10.3636 5.22727V17.25C10.3636 19.5605 8.41091 21.4318 6 21.4318C3.58909 21.4318 1.63636 19.5605 1.63636 17.25V4.18182C1.63636 2.73909 2.85818 1.56818 4.36364 1.56818C5.86909 1.56818 7.09091 2.73909 7.09091 4.18182V15.1591C7.09091 15.7341 6.6 16.2045 6 16.2045C5.4 16.2045 4.90909 15.7341 4.90909 15.1591V5.22727H3.27273V15.1591C3.27273 16.6018 4.49455 17.7727 6 17.7727C7.50545 17.7727 8.72727 16.6018 8.72727 15.1591V4.18182C8.72727 1.87136 6.77455 0 4.36364 0C1.95273 0 0 1.87136 0 4.18182V17.25C0 20.4282 2.68364 23 6 23C9.31636 23 12 20.4282 12 17.25V5.22727H10.3636Z" fill="#D4D7DC"/>
</svg>
