<svg width="19" height="21" viewBox="0 0 19 21" fill="none" xmlns="http://www.w3.org/2000/svg">
<path d="M18.762 9.87371C19.1064 9.45697 19.0731 8.81823 18.6877 8.44741L10.1964 0.27309C9.81094 -0.0977264 9.19301 -0.0899585 8.81571 0.290602L0.295504 8.88323C-0.0818038 9.26379 -0.100322 9.90172 0.254503 10.3075L0.468116 10.5522C0.822508 10.958 1.39534 11.0064 1.74676 10.66L2.38352 10.0326V19.2173C2.38352 19.7808 2.79854 20.237 3.31037 20.237H6.63157C7.1434 20.237 7.55843 19.7808 7.55843 19.2173V12.7917H11.7947V19.2173C11.7873 19.7804 12.1535 20.2366 12.6653 20.2366H16.185C16.6968 20.2366 17.1118 19.7804 17.1118 19.2169V10.1619C17.1118 10.1619 17.2877 10.3315 17.5047 10.5413C17.7213 10.7507 18.1762 10.5828 18.5206 10.1656L18.762 9.87371Z" fill="white"/>
</svg>
