<svg width="17" height="23" viewBox="0 0 17 23" fill="none" xmlns="http://www.w3.org/2000/svg">
<path d="M8.5 14.5263C10.5157 14.5263 12.1307 12.9042 12.1307 10.8947L12.1429 3.63158C12.1429 1.62211 10.5157 0 8.5 0C6.48429 0 4.85714 1.62211 4.85714 3.63158V10.8947C4.85714 12.9042 6.48429 14.5263 8.5 14.5263ZM14.9357 10.8947C14.9357 14.5263 11.8514 17.0684 8.5 17.0684C5.14857 17.0684 2.06429 14.5263 2.06429 10.8947H0C0 15.0226 3.30286 18.4363 7.28571 19.0295V23H9.71429V19.0295C13.6971 18.4484 17 15.0347 17 10.8947H14.9357Z" fill="#D4D7DC"/>
</svg>
