<svg width="19" height="21" viewBox="0 0 19 21" fill="none" xmlns="http://www.w3.org/2000/svg">
<path d="M18.762 9.87658C19.1064 9.45984 19.0731 8.8211 18.6877 8.45028L10.1964 0.275959C9.81094 -0.0948577 9.19301 -0.0870898 8.81571 0.293471L0.295504 8.8861C-0.0818038 9.26666 -0.100322 9.90459 0.254503 10.3104L0.468116 10.5551C0.822508 10.9609 1.39534 11.0093 1.74676 10.6628L2.38352 10.0355V19.2202C2.38352 19.7837 2.79854 20.2399 3.31037 20.2399H6.63157C7.1434 20.2399 7.55843 19.7837 7.55843 19.2202V12.7946H11.7947V19.2202C11.7873 19.7833 12.1535 20.2395 12.6653 20.2395H16.185C16.6968 20.2395 17.1118 19.7833 17.1118 19.2198V10.1648C17.1118 10.1648 17.2877 10.3343 17.5047 10.5441C17.7213 10.7535 18.1762 10.5856 18.5206 10.1685L18.762 9.87658Z" fill="white"/>
</svg>
