<svg width="22" height="21" viewBox="0 0 22 21" fill="none" xmlns="http://www.w3.org/2000/svg">
<path d="M17.4883 -3.05176e-05H4.51172C2.0239 -3.05176e-05 0 2.26088 0 5.04005V12.8244C0 15.042 1.30333 16.9735 3.19194 17.5917L5.37093 20.0261C5.49194 20.1611 5.65576 20.237 5.8268 20.237C5.99767 20.237 6.16165 20.1611 6.2825 20.0261L8.28139 17.7929H17.4883C19.9761 17.7929 22 15.532 22 12.7528V5.04005C22 2.26088 19.9761 -3.05176e-05 17.4883 -3.05176e-05ZM20.7109 12.7528C20.7109 14.7379 19.2653 16.3529 17.4883 16.3529H8.01451C7.84364 16.3529 7.67966 16.4288 7.55881 16.5638L5.8268 18.4987L3.98216 16.438C3.89941 16.3456 3.79568 16.2799 3.68205 16.2484C2.27315 15.8567 1.28906 14.4488 1.28906 12.8244V5.04005C1.28906 3.05496 2.73473 1.43999 4.51172 1.43999H17.4883C19.2653 1.43999 20.7109 3.05496 20.7109 5.04005V12.7528Z" fill="white"/>
</svg>
